<?xml version="1.0" encoding="UTF-8"?>
<!DOCTYPE svg PUBLIC "-//W3C//DTD SVG 1.1//EN" "http://www.w3.org/Graphics/SVG/1.1/DTD/svg11.dtd">
<svg xmlns="http://www.w3.org/2000/svg" version="1.1" width="578px" height="642px" style="shape-rendering:geometricPrecision; text-rendering:geometricPrecision; image-rendering:optimizeQuality; fill-rule:evenodd; clip-rule:evenodd" xmlns:xlink="http://www.w3.org/1999/xlink">
<g><path style="opacity:0.004" fill="#fefffe" d="M 3.5,6.5 C 4.83333,7.16667 4.83333,7.16667 3.5,6.5 Z"/></g>
<g><path style="opacity:0.004" fill="#fefffe" d="M 407.5,8.5 C 408.833,9.16667 408.833,9.16667 407.5,8.5 Z"/></g>
<g><path style="opacity:0.004" fill="#fefffe" d="M 504.5,9.5 C 505.833,10.1667 505.833,10.1667 504.5,9.5 Z"/></g>
<g><path style="opacity:0.004" fill="#fefffe" d="M 434.5,11.5 C 435.833,12.1667 435.833,12.1667 434.5,11.5 Z"/></g>
<g><path style="opacity:0.004" fill="#fefffe" d="M 351.5,27.5 C 352.833,28.1667 352.833,28.1667 351.5,27.5 Z"/></g>
<g><path style="opacity:0.004" fill="#fefffe" d="M 356.5,29.5 C 357.833,30.1667 357.833,30.1667 356.5,29.5 Z"/></g>
<g><path style="opacity:0.004" fill="#00fffe" d="M 497.5,41.5 C 498.833,42.1667 498.833,42.1667 497.5,41.5 Z"/></g>
<g><path style="opacity:0.004" fill="#fefffe" d="M 534.5,42.5 C 535.833,43.1667 535.833,43.1667 534.5,42.5 Z"/></g>
<g><path style="opacity:0.004" fill="#fefffe" d="M 8.5,50.5 C 9.83333,51.1667 9.83333,51.1667 8.5,50.5 Z"/></g>
<g><path style="opacity:0.004" fill="#fefffe" d="M 274.5,67.5 C 275.833,68.1667 275.833,68.1667 274.5,67.5 Z"/></g>
<g><path style="opacity:0.004" fill="#fefffe" d="M 556.5,67.5 C 557.833,68.1667 557.833,68.1667 556.5,67.5 Z"/></g>
<g><path style="opacity:0.004" fill="#fefffe" d="M 426.5,72.5 C 427.833,73.1667 427.833,73.1667 426.5,72.5 Z"/></g>
<g><path style="opacity:0.004" fill="#fefffe" d="M 453.5,72.5 C 454.833,73.1667 454.833,73.1667 453.5,72.5 Z"/></g>
<g><path style="opacity:0.004" fill="#fefffe" d="M 23.5,113.5 C 24.8333,114.167 24.8333,114.167 23.5,113.5 Z"/></g>
<g><path style="opacity:0.004" fill="#fefffe" d="M 404.5,116.5 C 405.833,117.167 405.833,117.167 404.5,116.5 Z"/></g>
<g><path style="opacity:0.004" fill="#fefffe" d="M 89.5,122.5 C 90.8333,123.167 90.8333,123.167 89.5,122.5 Z"/></g>
<g><path style="opacity:0.004" fill="#fefffe" d="M 439.5,127.5 C 440.833,128.167 440.833,128.167 439.5,127.5 Z"/></g>
<g><path style="opacity:0.004" fill="#fefffe" d="M 457.5,127.5 C 458.833,128.167 458.833,128.167 457.5,127.5 Z"/></g>
<g><path style="opacity:0.004" fill="#fefffe" d="M 549.5,135.5 C 550.833,136.167 550.833,136.167 549.5,135.5 Z"/></g>
<g><path style="opacity:0.004" fill="#fefffe" d="M 514.5,136.5 C 515.833,137.167 515.833,137.167 514.5,136.5 Z"/></g>
<g><path style="opacity:0.004" fill="#fefffe" d="M 378.5,144.5 C 379.833,145.167 379.833,145.167 378.5,144.5 Z"/></g>
<g><path style="opacity:0.004" fill="#fefffe" d="M 550.5,145.5 C 551.833,146.167 551.833,146.167 550.5,145.5 Z"/></g>
<g><path style="opacity:0.004" fill="#fefffe" d="M 22.5,160.5 C 23.8333,161.167 23.8333,161.167 22.5,160.5 Z"/></g>
<g><path style="opacity:0.004" fill="#fefffe" d="M 457.5,160.5 C 458.833,161.167 458.833,161.167 457.5,160.5 Z"/></g>
<g><path style="opacity:0.004" fill="#fefffe" d="M 112.5,175.5 C 113.833,176.167 113.833,176.167 112.5,175.5 Z"/></g>
<g><path style="opacity:0.004" fill="#fefffe" d="M 451.5,175.5 C 452.833,176.167 452.833,176.167 451.5,175.5 Z"/></g>
<g><path style="opacity:0.004" fill="#fefffe" d="M 417.5,177.5 C 418.833,178.167 418.833,178.167 417.5,177.5 Z"/></g>
<g><path style="opacity:0.004" fill="#fefffe" d="M 265.5,199.5 C 266.833,200.167 266.833,200.167 265.5,199.5 Z"/></g>
<g><path style="opacity:0.004" fill="#fefffe" d="M 572.5,203.5 C 573.833,204.167 573.833,204.167 572.5,203.5 Z"/></g>
<g><path style="opacity:0.004" fill="#fefffe" d="M 484.5,205.5 C 485.833,206.167 485.833,206.167 484.5,205.5 Z"/></g>
<g><path style="opacity:0.004" fill="#fefffe" d="M 440.5,215.5 C 441.833,216.167 441.833,216.167 440.5,215.5 Z"/></g>
<g><path style="opacity:0.004" fill="#fefffe" d="M 47.5,227.5 C 48.8333,228.167 48.8333,228.167 47.5,227.5 Z"/></g>
<g><path style="opacity:0.004" fill="#fefffe" d="M 5.5,233.5 C 6.83333,234.167 6.83333,234.167 5.5,233.5 Z"/></g>
<g><path style="opacity:0.004" fill="#fefffe" d="M 82.5,244.5 C 83.8333,245.167 83.8333,245.167 82.5,244.5 Z"/></g>
<g><path style="opacity:0.004" fill="#fefffe" d="M 513.5,249.5 C 514.833,250.167 514.833,250.167 513.5,249.5 Z"/></g>
<g><path style="opacity:0.004" fill="#fefffe" d="M 115.5,289.5 C 116.833,290.167 116.833,290.167 115.5,289.5 Z"/></g>
<g><path style="opacity:0.004" fill="#fefffe" d="M 488.5,296.5 C 489.833,297.167 489.833,297.167 488.5,296.5 Z"/></g>
<g><path style="opacity:0.004" fill="#fefffe" d="M 533.5,305.5 C 534.833,306.167 534.833,306.167 533.5,305.5 Z"/></g>
<g><path style="opacity:0.004" fill="#fefffe" d="M 572.5,311.5 C 573.833,312.167 573.833,312.167 572.5,311.5 Z"/></g>
<g><path style="opacity:0.004" fill="#fefffe" d="M 65.5,314.5 C 66.8333,315.167 66.8333,315.167 65.5,314.5 Z"/></g>
<g><path style="opacity:0.956" fill="#090402" d="M 191.5,270.5 C 204.145,280.969 216.979,291.303 230,301.5C 227.877,271.863 235.877,245.197 254,221.5C 270.077,202.605 290.243,196.438 314.5,203C 299.251,211.311 289.085,223.811 284,240.5C 281.143,250.642 279.476,260.975 279,271.5C 278.541,287.196 279.041,302.862 280.5,318.5C 302.233,319.9 322.233,314.734 340.5,303C 361.819,284.579 368.319,261.746 360,234.5C 346.818,204.312 323.985,186.145 291.5,180C 284.369,179.032 277.202,178.532 270,178.5C 248.655,179.968 227.322,181.634 206,183.5C 164.23,180.785 131.23,162.452 107,128.5C 93.5912,103.946 83.9246,77.9458 78,50.5C 77.5003,42.1733 77.3336,33.84 77.5,25.5C 78.552,25.3505 79.552,25.5172 80.5,26C 93.1746,42.668 109.175,55.0014 128.5,63C 143.057,69.0566 158.057,73.7232 173.5,77C 206.919,82.9031 240.252,89.2364 273.5,96C 343.965,113.132 388.798,156.632 408,226.5C 414.847,253.008 412.013,278.342 399.5,302.5C 444.222,330.421 473.056,370.088 486,421.5C 494.48,456.955 488.813,489.955 469,520.5C 423.429,586.928 360.929,612.095 281.5,596C 219.523,579.122 172.023,543.288 139,488.5C 113.551,443.241 107.551,395.575 121,345.5C 125.611,331.613 130.778,317.947 136.5,304.5C 137.274,303.289 138.107,303.289 139,304.5C 144.218,315.381 152.718,322.215 164.5,325C 188.992,330.637 213.658,334.97 238.5,338C 221.866,330.689 206.533,321.355 192.5,310C 172.167,291.667 151.833,273.333 131.5,255C 147.248,253.458 162.248,256.125 176.5,263C 181.553,265.527 186.553,268.027 191.5,270.5 Z M 336.5,345.5 C 365.288,358.493 381.788,380.826 386,412.5C 389.835,445.331 380.335,473.498 357.5,497C 337.776,513.269 315.11,519.935 289.5,517C 281.016,516.086 272.683,514.419 264.5,512C 272.839,507.326 278.672,500.493 282,491.5C 290.022,468.814 292.689,445.481 290,421.5C 288.334,397.339 285.501,373.339 281.5,349.5C 300.224,351.663 318.557,350.33 336.5,345.5 Z M 186.5,375.5 C 193.455,376.28 198.289,379.947 201,386.5C 200.306,401.781 206.806,412.781 220.5,419.5C 219.157,438.034 213.657,455.368 204,471.5C 201.561,474.612 198.561,476.945 195,478.5C 188.45,475.609 184.45,470.609 183,463.5C 176.094,435.908 175.761,408.241 182,380.5C 183.025,378.313 184.525,376.646 186.5,375.5 Z"/></g>
<g><path style="opacity:1" fill="#ae976a" d="M 404.5,239.5 C 410.537,275.231 399.204,304.064 370.5,326C 347.625,339.053 322.959,345.553 296.5,345.5C 286.535,345.322 276.868,343.989 267.5,341.5C 286.889,340.031 306.223,337.864 325.5,335C 327.657,333.088 329.991,331.421 332.5,330C 338.298,327.174 344.132,324.34 350,321.5C 356.524,315.982 363.358,310.816 370.5,306C 376.514,297.743 382.848,289.91 389.5,282.5C 393.134,278.589 396.301,274.256 399,269.5C 399.308,270.308 399.808,270.975 400.5,271.5C 400.982,266.952 402.149,262.619 404,258.5C 404.5,252.175 404.666,245.842 404.5,239.5 Z"/></g>
<g><path style="opacity:1" fill="#f0bb57" d="M 169.5,266.5 C 170.36,268.614 172.027,269.78 174.5,270C 174.167,270.333 173.833,270.667 173.5,271C 176.043,271.14 178.377,271.806 180.5,273C 177.833,273.667 175.167,273.667 172.5,273C 167.26,271.324 161.927,270.158 156.5,269.5C 153.369,266.871 150.369,264.038 147.5,261C 155.24,261.38 162.573,263.213 169.5,266.5 Z"/></g>
<g><path style="opacity:1" fill="#b69558" d="M 393.5,200.5 C 399.144,212.832 402.811,225.832 404.5,239.5C 404.666,245.842 404.5,252.175 404,258.5C 402.149,262.619 400.982,266.952 400.5,271.5C 399.808,270.975 399.308,270.308 399,269.5C 396.301,274.256 393.134,278.589 389.5,282.5C 393.761,273.555 397.927,264.555 402,255.5C 403.786,245.459 403.452,235.459 401,225.5C 397.811,217.405 395.311,209.072 393.5,200.5 Z"/></g>
<g><path style="opacity:1" fill="#f5be56" d="M 290.5,215.5 C 289.752,217.332 288.752,218.999 287.5,220.5C 279.449,227.724 271.615,235.724 264,244.5C 254.015,259.788 245.015,275.788 237,292.5C 236.577,285.491 236.744,278.491 237.5,271.5C 240.989,250.02 250.656,231.853 266.5,217C 268.405,215.579 270.405,214.412 272.5,213.5C 276.667,212.754 280.667,211.421 284.5,209.5C 287.428,208.516 290.428,208.183 293.5,208.5C 293.5,209.5 293.5,210.5 293.5,211.5C 292.5,211.5 291.5,211.5 290.5,211.5C 290.5,212.833 290.5,214.167 290.5,215.5 Z"/></g>
<g><path style="opacity:1" fill="#b59448" d="M 364.5,229.5 C 365.999,230.678 366.999,232.345 367.5,234.5C 371.154,247.467 371.321,260.467 368,273.5C 367.617,274.056 367.117,274.389 366.5,274.5C 369.614,259.332 368.947,244.332 364.5,229.5 Z"/></g>
<g><path style="opacity:1" fill="#cb9b3b" d="M 287.5,220.5 C 278.007,236.802 273.34,254.468 273.5,273.5C 272.415,287.36 272.248,301.36 273,315.5C 272.107,316.081 271.107,316.415 270,316.5C 262.365,315.103 254.865,313.437 247.5,311.5C 242.517,310.611 239.017,307.944 237,303.5C 234.846,292.647 235.013,281.98 237.5,271.5C 236.744,278.491 236.577,285.491 237,292.5C 245.015,275.788 254.015,259.788 264,244.5C 271.615,235.724 279.449,227.724 287.5,220.5 Z"/></g>
<g><path style="opacity:1" fill="#e2b460" d="M 287.5,207.5 C 291.042,207.187 294.375,207.521 297.5,208.5C 295.5,211.167 293.167,213.5 290.5,215.5C 290.5,214.167 290.5,212.833 290.5,211.5C 291.5,211.5 292.5,211.5 293.5,211.5C 293.5,210.5 293.5,209.5 293.5,208.5C 290.428,208.183 287.428,208.516 284.5,209.5C 280.667,211.421 276.667,212.754 272.5,213.5C 276.437,209.037 281.437,207.037 287.5,207.5 Z"/></g>
<g><path style="opacity:1" fill="#766339" d="M 287.5,207.5 C 291.311,206.355 295.311,206.188 299.5,207C 298.956,207.717 298.289,208.217 297.5,208.5C 294.375,207.521 291.042,207.187 287.5,207.5 Z"/></g>
<g><path style="opacity:1" fill="#a58443" d="M 284.5,173.5 C 290.895,173.573 297.228,174.239 303.5,175.5C 306.34,176.106 308.673,177.439 310.5,179.5C 301.867,176.843 293.2,174.843 284.5,173.5 Z"/></g>
<g><path style="opacity:1" fill="#cea95c" d="M 299.5,110.5 C 308.478,112.825 316.811,116.492 324.5,121.5C 315.976,118.067 307.643,114.4 299.5,110.5 Z"/></g>
<g><path style="opacity:1" fill="#d8ac5d" d="M 171.5,82.5 C 181.682,84.1809 191.682,86.1809 201.5,88.5C 193.804,87.8549 186.138,86.8549 178.5,85.5C 175.783,85.026 173.45,84.026 171.5,82.5 Z"/></g>
<g><path style="opacity:1" fill="#ca9b3a" d="M 104.5,56.5 C 117.264,94.3961 143.598,117.563 183.5,126C 226.433,131.489 269.099,138.489 311.5,147C 338.086,154.959 362.419,167.126 384.5,183.5C 388.26,188.684 391.26,194.35 393.5,200.5C 395.311,209.072 397.811,217.405 401,225.5C 403.452,235.459 403.786,245.459 402,255.5C 397.927,264.555 393.761,273.555 389.5,282.5C 382.848,289.91 376.514,297.743 370.5,306C 363.358,310.816 356.524,315.982 350,321.5C 344.132,324.34 338.298,327.174 332.5,330C 329.991,331.421 327.657,333.088 325.5,335C 306.223,337.864 286.889,340.031 267.5,341.5C 247.743,336.953 229.409,329.12 212.5,318C 192.46,303.462 173.793,287.296 156.5,269.5C 161.927,270.158 167.26,271.324 172.5,273C 175.167,273.667 177.833,273.667 180.5,273C 178.377,271.806 176.043,271.14 173.5,271C 173.833,270.667 174.167,270.333 174.5,270C 172.027,269.78 170.36,268.614 169.5,266.5C 178.202,269.351 186.202,273.517 193.5,279C 206.88,290.048 220.547,300.715 234.5,311C 257.477,323.083 281.81,326.749 307.5,322C 326.666,318.503 342.833,309.67 356,295.5C 360.568,289.031 364.068,282.031 366.5,274.5C 367.117,274.389 367.617,274.056 368,273.5C 371.321,260.467 371.154,247.467 367.5,234.5C 366.999,232.345 365.999,230.678 364.5,229.5C 353.26,205.595 335.26,188.929 310.5,179.5C 308.673,177.439 306.34,176.106 303.5,175.5C 297.228,174.239 290.895,173.573 284.5,173.5C 264.048,172.769 243.715,173.935 223.5,177C 176.67,181.163 139.504,164.33 112,126.5C 108.412,120.325 105.078,113.991 102,107.5C 93.712,86.1778 87.212,64.3445 82.5,42C 82.6667,40.1667 82.8333,38.3333 83,36.5C 87.5343,40.6994 91.701,45.1994 95.5,50C 98.5672,52.1882 101.567,54.3548 104.5,56.5 Z"/></g>
<g><path style="opacity:1" fill="#ab8945" d="M 273.5,273.5 C 273.106,288.563 273.773,303.563 275.5,318.5C 265.591,318.023 256.258,315.689 247.5,311.5C 254.865,313.437 262.365,315.103 270,316.5C 271.107,316.415 272.107,316.081 273,315.5C 272.248,301.36 272.415,287.36 273.5,273.5 Z"/></g>
<g><path style="opacity:0.004" fill="#fefffe" d="M 322.5,298.5 C 323.833,299.167 323.833,299.167 322.5,298.5 Z"/></g>
<g><path style="opacity:0.004" fill="#fefffe" d="M 191.5,269.5 C 192.833,270.167 192.833,270.167 191.5,269.5 Z"/></g>
<g><path style="opacity:1" fill="#f6be54" d="M 104.5,56.5 C 125.531,68.7289 147.865,77.3956 171.5,82.5C 173.45,84.026 175.783,85.026 178.5,85.5C 186.138,86.8549 193.804,87.8549 201.5,88.5C 226.388,91.7214 251.055,96.2214 275.5,102C 283.819,104.236 291.819,107.07 299.5,110.5C 307.643,114.4 315.976,118.067 324.5,121.5C 350.289,136.622 370.289,157.288 384.5,183.5C 362.419,167.126 338.086,154.959 311.5,147C 269.099,138.489 226.433,131.489 183.5,126C 143.598,117.563 117.264,94.3961 104.5,56.5 Z"/></g>
<g><path style="opacity:1" fill="#ca9b3a" d="M 449.5,356.5 C 451.5,364.966 452,373.633 451,382.5C 449.088,389.28 448.088,396.28 448,403.5C 446.99,407.019 445.49,410.353 443.5,413.5C 445.138,417.512 444.472,421.012 441.5,424C 440.841,426.462 440.507,428.962 440.5,431.5C 437.155,439.039 433.989,446.705 431,454.5C 427.521,457.719 425.521,461.719 425,466.5C 422.517,469.139 420.684,472.139 419.5,475.5C 414.446,482.491 409.28,489.491 404,496.5C 398.825,501.043 393.991,505.876 389.5,511C 383.833,514.667 378.167,518.333 372.5,522C 370.234,523.426 368.568,525.26 367.5,527.5C 359.303,530.085 350.97,532.418 342.5,534.5C 341.38,536.596 339.88,536.93 338,535.5C 337.005,536.066 336.172,536.733 335.5,537.5C 333.692,537.509 332.025,537.009 330.5,536C 333.509,534.163 336.509,532.33 339.5,530.5C 334.868,529.672 330.202,529.172 325.5,529C 324.167,528 322.833,527 321.5,526C 322.973,525.29 323.64,524.124 323.5,522.5C 311.199,524.898 299.199,524.898 287.5,522.5C 347.722,524.785 382.555,496.118 392,436.5C 394.841,404.045 384.674,376.545 361.5,354C 356.638,350.305 351.638,346.805 346.5,343.5C 366.468,336.529 383.135,324.862 396.5,308.5C 400.209,309.188 403.543,310.688 406.5,313C 423.062,325.395 437.396,339.895 449.5,356.5 Z"/></g>
<g><path style="opacity:1" fill="#cb9b3a" d="M 133.5,327.5 C 135.401,329.796 137.734,331.629 140.5,333C 145.72,335.305 151.053,337.305 156.5,339C 170.867,340.781 185.2,342.781 199.5,345C 212.845,350.335 226.178,355.668 239.5,361C 245.554,365.274 248.887,371.107 249.5,378.5C 255.574,371.866 257.074,364.199 254,355.5C 252.871,352.206 251.038,349.54 248.5,347.5C 255.139,348.267 261.139,350.601 266.5,354.5C 268.496,359.587 268.996,364.92 268,370.5C 267.178,375.189 265.678,379.523 263.5,383.5C 258.88,383.946 255.88,386.446 254.5,391C 250.62,393.506 246.954,396.173 243.5,399C 233.338,400.084 223.338,399.418 213.5,397C 209.499,394.705 207.832,391.205 208.5,386.5C 210.203,380.092 213.203,374.425 217.5,369.5C 217.566,367.734 216.732,366.734 215,366.5C 213.056,367.439 211.389,368.773 210,370.5C 208.421,373.994 206.587,377.327 204.5,380.5C 198.383,371.245 190.383,368.745 180.5,373C 179.023,374.812 177.69,376.645 176.5,378.5C 174.933,379.681 174.099,381.347 174,383.5C 169.509,407.996 169.342,432.496 173.5,457C 172.692,459.075 171.358,460.742 169.5,462C 170.636,465.113 172.136,467.947 174,470.5C 174.915,469.672 175.581,468.672 176,467.5C 176.333,467.833 176.667,468.167 177,468.5C 177.238,471.308 176.904,473.974 176,476.5C 178.129,477.863 178.629,477.529 177.5,475.5C 178.002,474.479 178.668,474.312 179.5,475C 181.004,476.491 181.837,478.324 182,480.5C 182.333,480.167 182.667,479.833 183,479.5C 184.448,481.894 186.614,483.394 189.5,484C 194.202,484.828 198.869,484.662 203.5,483.5C 205.952,480.394 207.952,477.061 209.5,473.5C 215.157,462.516 219.824,451.183 223.5,439.5C 224.586,439.38 225.253,438.713 225.5,437.5C 226.501,434.161 227.501,430.828 228.5,427.5C 229.025,426.808 229.692,426.308 230.5,426C 237.137,426.441 243.804,426.441 250.5,426C 253.191,425.844 255.524,425.011 257.5,423.5C 268.798,420.705 276.965,414.038 282,403.5C 283.128,405.345 283.628,407.345 283.5,409.5C 282.778,409.082 282.278,408.416 282,407.5C 280.551,432.37 272.884,455.037 259,475.5C 255.869,479.633 252.369,483.466 248.5,487C 240.092,492.399 231.425,497.399 222.5,502C 227.319,503.606 232.319,503.939 237.5,503C 249.798,502.377 261.465,499.544 272.5,494.5C 273.151,492.153 274.484,490.486 276.5,489.5C 274.486,494.357 271.819,498.857 268.5,503C 261.869,506.327 255.202,509.66 248.5,513C 261.246,517.533 274.246,520.7 287.5,522.5C 299.199,524.898 311.199,524.898 323.5,522.5C 323.64,524.124 322.973,525.29 321.5,526C 322.833,527 324.167,528 325.5,529C 330.202,529.172 334.868,529.672 339.5,530.5C 336.509,532.33 333.509,534.163 330.5,536C 332.025,537.009 333.692,537.509 335.5,537.5C 332.404,539.01 329.071,540.343 325.5,541.5C 306.361,545.684 287.027,546.684 267.5,544.5C 259.182,543.704 251.182,541.704 243.5,538.5C 233.205,533.688 222.872,529.188 212.5,525C 209.929,521.863 206.596,520.363 202.5,520.5C 202.439,517.27 200.772,515.437 197.5,515C 195.466,511.115 192.466,508.615 188.5,507.5C 188.649,506.448 188.483,505.448 188,504.5C 180.245,497.748 173.579,490.081 168,481.5C 166.89,479.963 165.39,479.297 163.5,479.5C 163.5,478.167 163.5,476.833 163.5,475.5C 162.5,475.5 161.5,475.5 160.5,475.5C 159.685,471.841 157.519,469.174 154,467.5C 148.925,461.687 144.592,455.354 141,448.5C 139.989,447.663 138.822,447.33 137.5,447.5C 135.372,441.926 132.205,436.926 128,432.5C 125.152,426.872 122.652,421.205 120.5,415.5C 120.5,414.5 120.5,413.5 120.5,412.5C 120.334,402.161 120.5,391.828 121,381.5C 123.12,368.745 125.287,356.078 127.5,343.5C 128.536,337.715 130.536,332.382 133.5,327.5 Z"/></g>
<g><path style="opacity:0.004" fill="#fefffe" d="M 545.5,335.5 C 546.833,336.167 546.833,336.167 545.5,335.5 Z"/></g>
<g><path style="opacity:0.004" fill="#fefffe" d="M 573.5,339.5 C 574.833,340.167 574.833,340.167 573.5,339.5 Z"/></g>
<g><path style="opacity:1" fill="#f5be55" d="M 248.5,347.5 C 251.038,349.54 252.871,352.206 254,355.5C 257.074,364.199 255.574,371.866 249.5,378.5C 248.887,371.107 245.554,365.274 239.5,361C 226.178,355.668 212.845,350.335 199.5,345C 185.2,342.781 170.867,340.781 156.5,339C 151.053,337.305 145.72,335.305 140.5,333C 137.734,331.629 135.401,329.796 133.5,327.5C 134.511,323.144 136.344,319.144 139,315.5C 147.102,323.971 156.935,329.471 168.5,332C 192.046,336.624 215.713,340.624 239.5,344C 242.718,344.9 245.718,346.067 248.5,347.5 Z"/></g>
<g><path style="opacity:1" fill="#ac9050" d="M 263.5,347.5 C 263.917,346.876 264.584,346.543 265.5,346.5C 268.833,347.333 272.167,348.167 275.5,349C 276.591,351.064 276.758,353.231 276,355.5C 272.37,351.939 268.203,349.272 263.5,347.5 Z"/></g>
<g><path style="opacity:0.004" fill="#fefffe" d="M 66.5,360.5 C 67.8333,361.167 67.8333,361.167 66.5,360.5 Z"/></g>
<g><path style="opacity:1" fill="#ac8a42" d="M 127.5,343.5 C 125.287,356.078 123.12,368.745 121,381.5C 120.5,391.828 120.334,402.161 120.5,412.5C 117.497,388.976 119.83,365.976 127.5,343.5 Z"/></g>
<g><path style="opacity:0.004" fill="#fefffe" d="M 550.5,361.5 C 551.833,362.167 551.833,362.167 550.5,361.5 Z"/></g>
<g><path style="opacity:0.004" fill="#fefffe" d="M 42.5,372.5 C 43.8333,373.167 43.8333,373.167 42.5,372.5 Z"/></g>
<g><path style="opacity:1" fill="#ae986c" d="M 266.5,354.5 C 276.881,361.434 281.547,371.267 280.5,384C 279.906,407.428 267.906,419.261 244.5,419.5C 228.267,419.972 216.101,413.305 208,399.5C 207.186,394.98 207.353,390.646 208.5,386.5C 207.832,391.205 209.499,394.705 213.5,397C 223.338,399.418 233.338,400.084 243.5,399C 246.954,396.173 250.62,393.506 254.5,391C 255.88,386.446 258.88,383.946 263.5,383.5C 265.678,379.523 267.178,375.189 268,370.5C 268.996,364.92 268.496,359.587 266.5,354.5 Z"/></g>
<g><path style="opacity:1" fill="#af986c" d="M 452.5,360.5 C 502.746,434.699 494.079,501.199 426.5,560C 381.117,594.491 330.783,604.158 275.5,589C 218.481,571.636 174.647,537.469 144,486.5C 131.658,464.307 123.825,440.641 120.5,415.5C 122.652,421.205 125.152,426.872 128,432.5C 132.205,436.926 135.372,441.926 137.5,447.5C 138.822,447.33 139.989,447.663 141,448.5C 144.592,455.354 148.925,461.687 154,467.5C 157.519,469.174 159.685,471.841 160.5,475.5C 161.5,475.5 162.5,475.5 163.5,475.5C 163.5,476.833 163.5,478.167 163.5,479.5C 165.39,479.297 166.89,479.963 168,481.5C 173.579,490.081 180.245,497.748 188,504.5C 188.483,505.448 188.649,506.448 188.5,507.5C 192.466,508.615 195.466,511.115 197.5,515C 200.772,515.437 202.439,517.27 202.5,520.5C 206.596,520.363 209.929,521.863 212.5,525C 222.872,529.188 233.205,533.688 243.5,538.5C 251.182,541.704 259.182,543.704 267.5,544.5C 303.161,550.886 336.494,545.219 367.5,527.5C 368.568,525.26 370.234,523.426 372.5,522C 378.167,518.333 383.833,514.667 389.5,511C 393.991,505.876 398.825,501.043 404,496.5C 409.28,489.491 414.446,482.491 419.5,475.5C 421.407,473.403 423.241,471.069 425,468.5C 424.149,478.787 425.649,479.121 429.5,469.5C 428.502,466.972 427.669,466.972 427,469.5C 426.333,467.833 426.333,466.167 427,464.5C 430.093,460.259 432.926,455.926 435.5,451.5C 437.83,446.753 439.33,441.753 440,436.5C 446.747,425.193 450.247,412.86 450.5,399.5C 453.379,386.724 454.045,373.724 452.5,360.5 Z"/></g>
<g><path style="opacity:0.004" fill="#fefffe" d="M 517.5,400.5 C 518.833,401.167 518.833,401.167 517.5,400.5 Z"/></g>
<g><path style="opacity:0.004" fill="#fefffe" d="M 44.5,401.5 C 45.8333,402.167 45.8333,402.167 44.5,401.5 Z"/></g>
<g><path style="opacity:1" fill="#c39a4a" d="M 449.5,356.5 C 451.262,357.262 452.262,358.596 452.5,360.5C 454.045,373.724 453.379,386.724 450.5,399.5C 449.066,406.775 447.233,414.109 445,421.5C 443.405,424.919 441.905,428.252 440.5,431.5C 440.507,428.962 440.841,426.462 441.5,424C 444.472,421.012 445.138,417.512 443.5,413.5C 445.49,410.353 446.99,407.019 448,403.5C 448.088,396.28 449.088,389.28 451,382.5C 452,373.633 451.5,364.966 449.5,356.5 Z"/></g>
<g><path style="opacity:1" fill="#b8995f" d="M 450.5,399.5 C 450.247,412.86 446.747,425.193 440,436.5C 439.33,441.753 437.83,446.753 435.5,451.5C 432.926,455.926 430.093,460.259 427,464.5C 426.333,466.167 426.333,467.833 427,469.5C 427.669,466.972 428.502,466.972 429.5,469.5C 425.649,479.121 424.149,478.787 425,468.5C 423.241,471.069 421.407,473.403 419.5,475.5C 420.684,472.139 422.517,469.139 425,466.5C 425.521,461.719 427.521,457.719 431,454.5C 433.989,446.705 437.155,439.039 440.5,431.5C 441.905,428.252 443.405,424.919 445,421.5C 447.233,414.109 449.066,406.775 450.5,399.5 Z"/></g>
<g><path style="opacity:1" fill="#b49045" d="M 257.5,423.5 C 255.524,425.011 253.191,425.844 250.5,426C 243.804,426.441 237.137,426.441 230.5,426C 229.692,426.308 229.025,426.808 228.5,427.5C 227.501,430.828 226.501,434.161 225.5,437.5C 225.253,438.713 224.586,439.38 223.5,439.5C 224.628,433.859 225.628,428.192 226.5,422.5C 236.75,424.729 247.083,425.062 257.5,423.5 Z"/></g>
<g><path style="opacity:0.004" fill="#fefffe" d="M 79.5,445.5 C 80.8333,446.167 80.8333,446.167 79.5,445.5 Z"/></g>
<g><path style="opacity:0.004" fill="#fefffe" d="M 95.5,455.5 C 96.8333,456.167 96.8333,456.167 95.5,455.5 Z"/></g>
<g><path style="opacity:1" fill="#f3bc54" d="M 283.5,409.5 C 288.068,436.92 285.735,463.587 276.5,489.5C 274.484,490.486 273.151,492.153 272.5,494.5C 261.465,499.544 249.798,502.377 237.5,503C 232.319,503.939 227.319,503.606 222.5,502C 231.425,497.399 240.092,492.399 248.5,487C 252.369,483.466 255.869,479.633 259,475.5C 272.884,455.037 280.551,432.37 282,407.5C 282.278,408.416 282.778,409.082 283.5,409.5 Z"/></g>
<g><path style="opacity:1" fill="#bb9442" d="M 176.5,378.5 C 172.259,401.34 171.426,424.34 174,447.5C 175.347,458.207 178.68,468.207 184,477.5C 188.257,483.491 193.757,484.991 200.5,482C 204.027,479.638 207.027,476.804 209.5,473.5C 207.952,477.061 205.952,480.394 203.5,483.5C 198.869,484.662 194.202,484.828 189.5,484C 186.614,483.394 184.448,481.894 183,479.5C 182.667,479.833 182.333,480.167 182,480.5C 181.837,478.324 181.004,476.491 179.5,475C 178.668,474.312 178.002,474.479 177.5,475.5C 178.629,477.529 178.129,477.863 176,476.5C 176.904,473.974 177.238,471.308 177,468.5C 176.667,468.167 176.333,467.833 176,467.5C 175.581,468.672 174.915,469.672 174,470.5C 172.136,467.947 170.636,465.113 169.5,462C 171.358,460.742 172.692,459.075 173.5,457C 169.342,432.496 169.509,407.996 174,383.5C 174.099,381.347 174.933,379.681 176.5,378.5 Z"/></g>
<g><path style="opacity:0.004" fill="#fefffe" d="M 161.5,542.5 C 162.833,543.167 162.833,543.167 161.5,542.5 Z"/></g>
<g><path style="opacity:0.004" fill="#fefffe" d="M 18.5,543.5 C 19.8333,544.167 19.8333,544.167 18.5,543.5 Z"/></g>
<g><path style="opacity:1" fill="#c39b4b" d="M 367.5,527.5 C 336.494,545.219 303.161,550.886 267.5,544.5C 287.027,546.684 306.361,545.684 325.5,541.5C 329.071,540.343 332.404,539.01 335.5,537.5C 336.172,536.733 337.005,536.066 338,535.5C 339.88,536.93 341.38,536.596 342.5,534.5C 350.97,532.418 359.303,530.085 367.5,527.5 Z"/></g>
<g><path style="opacity:0.004" fill="#fefffe" d="M 539.5,554.5 C 540.833,555.167 540.833,555.167 539.5,554.5 Z"/></g>
<g><path style="opacity:0.004" fill="#fefffe" d="M 464.5,566.5 C 465.833,567.167 465.833,567.167 464.5,566.5 Z"/></g>
<g><path style="opacity:0.004" fill="#fefffe" d="M 126.5,567.5 C 127.833,568.167 127.833,568.167 126.5,567.5 Z"/></g>
<g><path style="opacity:0.004" fill="#fefffe" d="M 176.5,578.5 C 177.833,579.167 177.833,579.167 176.5,578.5 Z"/></g>
<g><path style="opacity:0.004" fill="#fefffe" d="M 187.5,595.5 C 188.833,596.167 188.833,596.167 187.5,595.5 Z"/></g>
<g><path style="opacity:0.004" fill="#fefffe" d="M 169.5,601.5 C 170.833,602.167 170.833,602.167 169.5,601.5 Z"/></g>
<g><path style="opacity:0.004" fill="#fefffe" d="M 217.5,616.5 C 218.833,617.167 218.833,617.167 217.5,616.5 Z"/></g>
<g><path style="opacity:0.004" fill="#fefffe" d="M 201.5,624.5 C 202.833,625.167 202.833,625.167 201.5,624.5 Z"/></g>
<g><path style="opacity:0.004" fill="#fefffe" d="M 399.5,624.5 C 400.833,625.167 400.833,625.167 399.5,624.5 Z"/></g>
<g><path style="opacity:0.004" fill="#fefffe" d="M 320.5,635.5 C 321.833,636.167 321.833,636.167 320.5,635.5 Z"/></g>
<g><path style="opacity:0.004" fill="#fefffe" d="M 98.5,641.5 C 97.8333,640.167 97.8333,640.167 98.5,641.5 Z"/></g>
</svg>
